<svg width="50" height="51" viewBox="0 0 50 51" fill="none" xmlns="http://www.w3.org/2000/svg">
<path fill-rule="evenodd" clip-rule="evenodd" d="M29.8772 12.122C29.8772 14.667 27.814 16.7303 25.2689 16.7303C22.7239 16.7303 20.6606 14.667 20.6606 12.122C20.6606 9.57688 22.7239 7.51367 25.2689 7.51367C27.814 7.51367 29.8772 9.57688 29.8772 12.122ZM28.0339 12.122C28.0339 13.6491 26.796 14.8869 25.2689 14.8869C23.7418 14.8869 22.504 13.6491 22.504 12.122C22.504 10.5949 23.7418 9.35699 25.2689 9.35699C26.796 9.35699 28.0339 10.5949 28.0339 12.122Z" fill="#7F7F7F"/>
<path d="M18.8169 41.6157V35.1641H20.6602V41.6157C20.6602 42.1247 21.0728 42.5373 21.5819 42.5373H21.6618C22.1385 42.5373 22.5365 42.1738 22.5797 41.6991L23.1738 35.1641H25.0247L24.4154 41.866C24.4106 41.9187 24.4044 41.9711 24.3967 42.0228C24.3799 42.1361 24.3563 42.2471 24.3264 42.3553C24.0007 43.5325 22.923 44.3807 21.6618 44.3807H21.5819C20.0548 44.3807 18.8169 43.1428 18.8169 41.6157Z" fill="#7F7F7F"/>
<path d="M27.9578 41.6991L27.3637 35.1641H25.5127L26.122 41.866C26.1268 41.9187 26.1331 41.9711 26.1407 42.0228C26.1575 42.1361 26.1811 42.2471 26.211 42.3553C26.5368 43.5325 27.6144 44.3807 28.8756 44.3807H28.9556C30.4826 44.3807 31.7206 43.1428 31.7206 41.6157V35.1641H29.8773V41.6157C29.8773 42.1247 29.4646 42.5373 28.9556 42.5373H28.8756C28.399 42.5373 28.0009 42.1738 27.9578 41.6991Z" fill="#7F7F7F"/>
<path fill-rule="evenodd" clip-rule="evenodd" d="M13.2874 17.6523C12.7783 17.6523 12.3657 18.065 12.3657 18.574V32.3989C12.3657 32.9079 12.7783 33.3205 13.2874 33.3205H37.2505C37.7595 33.3205 38.1722 32.9079 38.1722 32.3989V18.574C38.1722 18.065 37.7595 17.6523 37.2505 17.6523H13.2874ZM14.209 19.4957V31.4772H21.1215C21.1215 30.9633 21.3603 30.5161 21.6077 30.1875C21.8667 29.8437 22.2087 29.531 22.5771 29.2667C23.0802 28.9061 23.7008 28.5878 24.3473 28.4061V26.4081H23.61C23.0545 26.4081 22.2768 26.7438 21.5301 27.1963C21.1803 27.4083 20.876 27.6217 20.6592 27.7824C20.5512 27.8623 20.466 27.9284 20.409 27.9735C20.3806 27.9959 20.3593 28.0132 20.3456 28.0242L20.3313 28.036L20.3288 28.038C20.3288 28.038 20.329 28.0378 19.739 27.3298C19.1489 26.6217 19.1492 26.6215 19.1492 26.6215L19.1504 26.6205L19.1526 26.6187L19.1595 26.613L19.1829 26.5939C19.2025 26.578 19.2302 26.5556 19.2655 26.5276C19.336 26.472 19.4366 26.394 19.5619 26.3011C19.8116 26.1162 20.1641 25.8687 20.5747 25.6199C21.3487 25.1508 22.5065 24.5648 23.61 24.5648H24.3473V22.7215H23.8865C23.3619 22.7215 22.6799 22.9051 22.0701 23.1268C21.7777 23.2332 21.5242 23.3398 21.3446 23.4197C21.255 23.4594 21.1846 23.4923 21.1377 23.5146C21.1143 23.5256 21.0968 23.5341 21.0858 23.5394L21.0742 23.5452L21.0726 23.5459C21.0726 23.5459 21.0728 23.5458 20.6607 22.7215C20.2485 21.8971 20.2488 21.897 20.2488 21.897L20.2518 21.8955L20.2578 21.8925L20.2776 21.8828C20.2943 21.8746 20.3177 21.8633 20.3474 21.8492C20.4067 21.8211 20.4911 21.7818 20.596 21.7352C20.8051 21.6423 21.0989 21.5185 21.4402 21.3945C22.0976 21.1554 23.0285 20.8782 23.8865 20.8782H24.3473V19.4957H14.209ZM26.1906 26.4081H27.2044C27.8947 26.4081 28.6041 26.7457 29.1981 27.1626C29.4842 27.3633 29.7192 27.5653 29.8817 27.7166C29.9625 27.7917 30.0242 27.8532 30.064 27.894C30.0838 27.9144 30.0982 27.9295 30.1066 27.9385L30.1145 27.947C30.1145 27.947 30.1138 27.9464 30.7989 27.3298C31.484 26.7132 31.4836 26.7128 31.4836 26.7128L31.4822 26.7113L31.4799 26.7087L31.4734 26.7016L31.453 26.6796C31.4362 26.6617 31.413 26.6371 31.3838 26.6072C31.3253 26.5472 31.2421 26.4646 31.1371 26.3669C30.9282 26.1725 30.6275 25.9137 30.2569 25.6536C29.5375 25.1488 28.4497 24.5648 27.2044 24.5648H26.1906V22.7215H26.8819C27.5218 22.7215 28.1439 22.9068 28.6267 23.11C28.8637 23.2099 29.0562 23.3093 29.1868 23.3822C29.2519 23.4186 29.3009 23.4479 29.3316 23.4668C29.347 23.4762 29.3577 23.483 29.3636 23.4868L29.3664 23.4886C29.3664 23.4886 29.366 23.4884 29.8772 22.7215C30.3885 21.9546 30.388 21.9543 30.388 21.9543L30.3866 21.9534L30.3842 21.9518L30.3779 21.9476L30.3591 21.9355C30.3439 21.9257 30.3233 21.9127 30.2977 21.897C30.2466 21.8654 30.1749 21.8228 30.0852 21.7727C29.9063 21.6728 29.6523 21.5418 29.342 21.4112C28.7304 21.1536 27.8548 20.8782 26.8819 20.8782H26.1906V19.4957H36.3289V31.4772H29.4164C29.4164 30.9592 29.1698 30.5051 28.9225 30.1754C28.6609 29.8267 28.3154 29.5054 27.9424 29.2342C27.451 28.8768 26.8348 28.5516 26.1906 28.3796V26.4081ZM27.5666 31.4772C27.5544 31.4468 27.523 31.3817 27.4478 31.2814C27.3205 31.1116 27.1188 30.9145 26.8582 30.7249C26.3268 30.3385 25.724 30.1055 25.2984 30.0951C24.7968 30.1375 24.1677 30.3945 23.6513 30.7648C23.394 30.9493 23.2004 31.1369 23.0802 31.2964C23.0105 31.389 22.9818 31.449 22.9706 31.4772H27.5666Z" fill="#7F7F7F"/>
</svg>
