<svg width="50" height="50" viewBox="0 0 50 50" fill="none" xmlns="http://www.w3.org/2000/svg">
<g id="Frame 29">
<g id="Group 75">
<path id="Vector" d="M23.7472 27.8847C23.4911 27.8847 23.248 27.7832 23.07 27.6055L18.1811 22.7166C17.8081 22.3436 17.8081 21.7336 18.1811 21.3644L34.4787 5.06689C34.8517 4.69385 35.4578 4.69385 35.8309 5.06689L40.7236 9.95573C40.9032 10.1373 41.0028 10.3803 41.0028 10.633C41.0028 10.8853 40.9013 11.1302 40.7236 11.3102L24.426 27.6077C24.2445 27.7838 24.0015 27.885 23.7469 27.885L23.7472 27.8847ZM20.2106 22.0375L23.7491 25.5779L38.6925 10.6346L35.1539 7.09413L20.2106 22.0375Z" fill="#7F7F7F"/>
<path id="Vector_2" d="M27.548 38.7816C23.8029 38.7816 20.2817 37.3202 17.6328 34.6731C17.2598 34.3039 17.2598 33.694 17.6328 33.3209C18.0039 32.9517 18.612 32.9517 18.985 33.3209C21.2706 35.6104 24.3138 36.869 27.5477 36.869C30.7821 36.869 33.8234 35.6106 36.1145 33.3209C38.4001 31.0392 39.6608 27.9979 39.6608 24.7598C39.6608 21.5236 38.4005 18.4842 36.1145 16.193C35.7415 15.8219 35.7415 15.2119 36.1145 14.8408C36.4856 14.4697 37.0937 14.4697 37.4667 14.8408C40.1157 17.4918 41.5733 21.013 41.5733 24.7577C41.5733 28.5047 40.1138 32.0241 37.4687 34.673C34.812 37.3219 31.2927 38.7814 27.5477 38.7814L27.548 38.7816Z" fill="#7F7F7F"/>
<path id="Vector_3" d="M38.4182 8.32676C38.1732 8.32676 37.9267 8.23295 37.741 8.04755C37.3679 7.67836 37.3679 7.0684 37.741 6.69535L41.0003 3.43798C41.3733 3.06494 41.9794 3.06494 42.3525 3.43798C42.7255 3.80909 42.7255 4.41713 42.3525 4.79018L39.0932 8.04755C38.9058 8.23295 38.6628 8.32676 38.4179 8.32676H38.4182Z" fill="#7F7F7F"/>
<path id="Vector_4" d="M26.5918 34.4715H9.37783C8.85174 34.4715 8.42139 34.0411 8.42139 33.515C8.42139 32.9889 8.85174 32.5586 9.37783 32.5586H26.5918C27.1198 32.5586 27.5482 32.9889 27.5482 33.515C27.5482 34.0411 27.1198 34.4715 26.5918 34.4715Z" fill="#7F7F7F"/>
<path id="Vector_5" d="M38.0677 47.8609H20.7734C20.4484 47.8609 20.1461 47.6963 19.97 47.4228C19.7939 47.1455 19.7712 46.8071 19.9031 46.5067L23.8089 37.8997C24.0269 37.4217 24.593 37.2055 25.0749 37.4255C25.5549 37.6416 25.7691 38.2097 25.551 38.6916L22.2594 45.9463H36.2831L31.5358 38.8254C31.245 38.3855 31.3616 37.7905 31.8035 37.4998C32.2415 37.2052 32.8365 37.3237 33.1271 37.7655L38.8651 46.3725C39.064 46.6633 39.0793 47.0459 38.9128 47.3555C38.7444 47.6655 38.4213 47.8605 38.0675 47.8605L38.0677 47.8609Z" fill="#7F7F7F"/>
</g>
</g>
</svg>
