<svg width="50" height="50" viewBox="0 0 50 50" fill="none" xmlns="http://www.w3.org/2000/svg">
<g id="heart-rate-svgrepo-com 1">
<path id="Vector" d="M7.26829 12.5074C5.7565 15.0991 5.25894 18.6952 6.18781 22.4108C6.52209 23.7477 7.49383 25.4666 9.03392 27.4452C10.5441 29.3852 12.4717 31.4133 14.5133 33.3591C18.5614 37.2177 22.9179 40.6212 25 42.1952C26.1831 41.3008 28.1009 39.8156 30.2788 37.9918C30.6571 37.6752 31.1342 37.4993 31.6275 37.4993H31.824C33.7217 37.4993 34.6034 39.8002 33.1506 41.0212C30.7838 43.011 28.7031 44.6202 27.4604 45.5583C26.0006 46.6606 23.9994 46.6606 22.5396 45.5583C20.4257 43.9623 15.8872 40.4248 11.6385 36.3754C9.51529 34.3516 7.42888 32.1664 5.74598 30.0046C4.09296 27.881 2.69252 25.6091 2.14556 23.4212C0.991094 18.8035 1.5352 14.0663 3.66921 10.408C5.83942 6.68758 9.62538 4.16602 14.5833 4.16602C19.98 4.16602 23.1186 8.2446 24.78 11.5676C24.8556 11.7188 24.929 11.8698 25 12.0204C25.0711 11.8698 25.1444 11.7188 25.22 11.5677C26.8815 8.2446 30.02 4.16602 35.4167 4.16602C40.3746 4.16602 44.1606 6.68758 46.3309 10.408C48.1496 13.5258 48.8136 17.4273 48.2552 21.3708C48.1267 22.2798 47.3211 22.916 46.4031 22.916C45.0592 22.916 44.1021 21.5798 44.2473 20.2437C44.5363 17.5828 44.0356 14.7427 42.7317 12.5074C41.2561 9.97779 38.7921 8.33268 35.4167 8.33268C32.48 8.33268 30.4102 10.5041 28.9467 13.431C28.2436 14.8374 27.7656 16.2649 27.4631 17.3538C27.3129 17.8943 27.2088 18.3417 27.1429 18.6488C26.9098 19.7367 25.6548 19.791 25 19.791C24.3452 19.791 23.0881 19.7265 22.8571 18.6488C22.7913 18.3418 22.6871 17.8943 22.5369 17.3538C22.2344 16.2649 21.7565 14.8375 21.0534 13.4311C19.5898 10.5041 17.5199 8.33268 14.5833 8.33268C11.2079 8.33268 8.7439 9.97779 7.26829 12.5074Z" fill="#7F7F7F"/>
<path id="Vector_2" d="M33.1646 20.0127C32.8453 19.2671 32.1219 18.7747 31.3111 18.7509C30.5003 18.7271 29.7492 19.1761 29.3865 19.9017L25.7957 27.0833H18.7498C17.5992 27.0833 16.6665 28.016 16.6665 29.1667C16.6665 30.3173 17.5992 31.25 18.7498 31.25H27.0832C27.8723 31.25 28.5936 30.8042 28.9465 30.0983L31.1044 25.7827L35.5848 36.2373C35.878 36.921 36.5134 37.3967 37.2519 37.4852C37.9905 37.5738 38.7203 37.2617 39.1665 36.6667L44.7915 29.1667H47.9165C49.0671 29.1667 49.9998 28.234 49.9998 27.0833C49.9998 25.9327 49.0671 25 47.9165 25H43.7498C43.094 25 42.4765 25.3088 42.0832 25.8333L37.9953 31.284L33.1646 20.0127Z" fill="#7F7F7F"/>
</g>
</svg>
