<svg width="52" height="46" viewBox="0 0 52 46" fill="none" xmlns="http://www.w3.org/2000/svg">
<g clip-path="url(#clip0_210_21636)">
</g>
<g clip-path="url(#clip1_210_21636)">
<path d="M19.3287 38.4572C19.195 38.4572 19.0612 38.4055 18.9599 38.3021C18.7599 38.0987 18.7627 37.7713 18.9668 37.5707L26.6349 30.0342C26.7693 29.9012 26.9686 29.8529 27.1499 29.9087C28.166 30.2224 28.7844 30.2286 29.2856 29.9287C29.9929 29.5041 30.7644 28.8712 31.4441 28.3128C32.0963 27.7778 32.6595 27.3159 33.1 27.0829C33.5006 26.872 33.7281 26.599 33.7246 26.3342C33.7219 26.1722 33.6288 26.0268 33.4806 25.9544C33.2772 25.8544 33.0118 25.9103 32.7519 26.1067C32.1838 26.5328 31.8764 26.6775 31.6523 26.783C31.5606 26.8265 31.4806 26.8623 31.389 26.9244C31.1642 27.0767 30.8588 27.0285 30.6927 26.8154C30.5251 26.6017 30.5513 26.2949 30.7526 26.1129L33.5178 23.6125C33.6288 23.5001 33.7722 23.3016 33.7163 23.0934C33.6715 22.9245 33.5061 22.7749 33.3068 22.7218C33.1593 22.6811 32.9408 22.6784 32.7319 22.8886L30.6203 24.8975C30.4148 25.0926 30.0894 25.0857 29.893 24.8831C29.6958 24.6797 29.6986 24.355 29.9006 24.1551L32.7526 21.3313C32.9298 21.1541 32.9959 20.9528 32.9415 20.7508C32.8849 20.5399 32.7057 20.3606 32.4961 20.3048C32.2769 20.2462 32.0473 20.3275 31.8329 20.5419L29.2443 23.1878C29.0505 23.3864 28.7348 23.396 28.528 23.2099C28.3218 23.0238 28.2998 22.7087 28.4776 22.4957L30.2459 20.3703C30.55 19.9787 30.6099 19.6175 30.3921 19.4417C30.1708 19.2645 29.6613 19.2542 29.2174 19.7843C29.0498 19.9849 28.8975 20.2069 28.6672 20.5433C28.3356 21.0273 27.8351 21.758 26.8962 22.9907C26.6659 23.2657 26.497 23.5477 26.3474 23.7959C26.0827 24.2385 25.8297 24.6611 25.3588 24.6004C24.8969 24.5459 24.7108 24.073 24.5708 23.6339C24.0304 21.929 23.5705 21.7118 23.323 21.5953L23.2569 21.5636C23.1728 21.5374 22.9494 21.5726 22.8301 21.627C22.8467 21.7367 22.9039 21.869 22.999 22.0159C23.7284 23.0272 23.7691 23.9813 23.8049 24.8224C23.8139 25.0237 23.8215 25.2236 23.8408 25.4242C23.8566 25.6028 23.8773 25.7303 23.8918 25.8289C23.9787 26.3894 23.9014 26.5183 23.4713 27.2325C23.443 27.2794 23.3796 27.3676 23.3389 27.4035L15.4185 34.2616C15.202 34.4477 14.8759 34.4243 14.6884 34.2092C14.5016 33.9934 14.5257 33.6666 14.7408 33.4791L22.6012 26.6748C22.7646 26.4032 22.8811 26.2074 22.8942 26.1515C22.8942 26.1329 22.8825 26.055 22.8722 25.9861C22.8549 25.8716 22.8322 25.7248 22.8129 25.5187C22.7929 25.3015 22.7832 25.0844 22.7736 24.8658C22.7398 24.0689 22.7102 23.3802 22.1469 22.5977C21.8788 22.1827 21.7664 21.8008 21.7981 21.4402C21.8126 21.2755 21.8967 20.9659 22.2958 20.7419C22.6709 20.5302 23.3051 20.4323 23.7167 20.6357C24.2923 20.9073 24.9038 21.3292 25.5126 23.1796C25.6642 22.9286 25.8497 22.6308 26.0903 22.3447C26.9975 21.1521 27.4897 20.4337 27.8151 19.9587C28.0544 19.6106 28.2267 19.3589 28.4259 19.1204C29.236 18.1511 30.3921 18.1118 31.0429 18.6365C31.2938 18.8385 31.4779 19.1294 31.5379 19.4768C31.9246 19.2569 32.352 19.1949 32.765 19.3059C33.3282 19.4568 33.7901 19.9194 33.9418 20.4833C34.061 20.928 33.9818 21.3809 33.7246 21.7698C34.2141 21.9504 34.5871 22.3433 34.716 22.8252C34.8573 23.3519 34.6808 23.9117 34.2313 24.3612L33.6212 24.9134C33.7294 24.9389 33.8356 24.9768 33.937 25.0265C34.4361 25.2712 34.7511 25.7675 34.7587 26.3204C34.7684 26.9878 34.3396 27.5993 33.5819 27.9984C33.2338 28.1818 32.6829 28.634 32.1004 29.1125C31.3931 29.6936 30.5906 30.352 29.8171 30.816C28.9506 31.3358 27.9964 31.22 27.143 30.9849L19.6906 38.3083C19.59 38.4076 19.459 38.4572 19.3287 38.4572Z" fill="white"/>
<path d="M24.0524 29.1504C23.7395 29.1504 23.4844 29.4055 23.4844 29.7191C23.4844 30.0328 23.7395 30.2879 24.0524 30.2879C24.3654 30.2879 24.6212 30.0328 24.6212 29.7191C24.6212 29.4055 24.3661 29.1504 24.0524 29.1504Z" fill="white"/>
<path d="M21.6222 31.0684C21.1948 31.0684 20.8467 31.4165 20.8467 31.8439C20.8467 32.2714 21.1948 32.6195 21.6222 32.6195C22.0497 32.6195 22.3978 32.2714 22.3978 31.8439C22.3978 31.4165 22.0497 31.0684 21.6222 31.0684Z" fill="white"/>
<path d="M18.9599 33.2168C18.3897 33.2168 17.9258 33.6808 17.9258 34.2509C17.9258 34.821 18.3897 35.285 18.9599 35.285C19.53 35.285 19.994 34.821 19.994 34.2509C19.994 33.6808 19.53 33.2168 18.9599 33.2168Z" fill="white"/>
</g>
<defs>
<clipPath id="clip0_210_21636">
<rect width="50.4636" height="45.5" fill="white" transform="translate(0.845703 0.25)"/>
</clipPath>
<clipPath id="clip1_210_21636">
<rect width="30.8182" height="30.8182" fill="white" transform="translate(12.2549 15.9688)"/>
</clipPath>
</defs>
</svg>
