<svg width="33" height="32" viewBox="0 0 33 32" fill="none" xmlns="http://www.w3.org/2000/svg">
<g id="VIA icons 24px 1" clip-path="url(#clip0_215_7576)">
<path id="Vector" d="M29.0636 27.5128L19.6996 18.2061C21.053 16.5608 21.8676 14.4541 21.8676 12.1621C21.8676 6.90748 17.5916 2.63281 12.3383 2.63281C7.08495 2.63281 2.80762 6.90748 2.80762 12.1621C2.80762 17.4168 7.08362 21.6915 12.337 21.6915C14.5796 21.6915 16.641 20.9075 18.2716 19.6048L27.653 28.9301C27.8476 29.1248 28.1023 29.2208 28.3583 29.2208C28.6156 29.2208 28.8716 29.1221 29.0676 28.9261C29.457 28.5341 29.4556 27.9008 29.0636 27.5115V27.5128ZM4.80762 12.1621C4.80762 8.01015 8.18495 4.63281 12.337 4.63281C16.489 4.63281 19.8663 8.01015 19.8663 12.1621C19.8663 16.3141 16.489 19.6915 12.337 19.6915C8.18495 19.6915 4.80762 16.3141 4.80762 12.1621Z" fill="#6F6F6F"/>
</g>
<defs>
<clipPath id="clip0_215_7576">
<rect width="32" height="32" fill="white" transform="translate(0.154297)"/>
</clipPath>
</defs>
</svg>
