<svg width="32" height="32" viewBox="0 0 70 70" fill="none" xmlns="http://www.w3.org/2000/svg">
<circle cx="35" cy="35" r="35" fill="#FC858D"/>
<path fill-rule="evenodd" clip-rule="evenodd" d="M35 56.25C46.7359 56.25 56.25 46.7359 56.25 35C56.25 23.2639 46.7359 13.75 35 13.75C23.2639 13.75 13.75 23.2639 13.75 35C13.75 46.7359 23.2639 56.25 35 56.25ZM35 60.5C49.0834 60.5 60.5 49.0834 60.5 35C60.5 20.9167 49.0834 9.5 35 9.5C20.9167 9.5 9.5 20.9167 9.5 35C9.5 49.0834 20.9167 60.5 35 60.5ZM37.125 43.5V47.75H32.875V43.5H37.125ZM30.75 30.5568C30.75 28.3775 32.5908 26.5 35 26.5C37.4092 26.5 39.25 28.3775 39.25 30.5568C39.25 31.4272 38.7261 32.4588 37.5715 33.6284C36.4524 34.7623 35.0295 35.7347 33.8463 36.4994L32.875 37.1276V41.375H37.125V39.4265C38.2051 38.6918 39.4846 37.7401 40.5964 36.6139C42.0318 35.1598 43.5 33.1005 43.5 30.5568C43.5 25.9079 39.6322 22.25 35 22.25C30.3678 22.25 26.5 25.9079 26.5 30.5568H30.75Z" fill="white"/>
</svg>
