<svg width="50" height="51" viewBox="0 0 50 51" fill="none" xmlns="http://www.w3.org/2000/svg">
<path d="M30.4517 7.27442C31.1569 7.34284 31.7899 6.83236 31.8606 6.13318C31.8944 5.79788 31.7952 5.46934 31.5809 5.20771C31.3636 4.94157 31.0539 4.77693 30.7096 4.74309C30.6667 4.73858 30.6239 4.73633 30.5818 4.73633C29.9292 4.73633 29.3676 5.22726 29.3007 5.88358C29.2668 6.21889 29.3661 6.54818 29.5803 6.80981C29.7976 7.07595 30.1066 7.24059 30.4509 7.27442H30.4517Z" fill="#7F7F7F"/>
<path d="M41.8123 8.39174C42.519 8.46015 43.1505 7.94892 43.2212 7.25049C43.255 6.91519 43.1558 6.5859 42.9415 6.32427C42.7242 6.05813 42.4145 5.89349 42.0702 5.85965C41.3635 5.79124 40.7319 6.30247 40.6613 7.0009C40.6274 7.3362 40.7267 7.66474 40.9409 7.92637C41.1582 8.19251 41.468 8.35715 41.8123 8.39098V8.39174Z" fill="#7F7F7F"/>
<path d="M28.2784 23.6684C28.3401 24.0307 28.6882 24.2751 29.055 24.2134C29.234 24.1834 29.3903 24.0856 29.4956 23.939C29.5978 23.7947 29.6384 23.6203 29.6091 23.4466L27.1221 8.75255C27.0402 8.26688 27.1627 7.78423 27.4672 7.39479C27.7522 7.03017 28.1965 6.78808 28.6852 6.72944L28.7393 6.72268C28.6273 6.43774 28.5822 6.128 28.6145 5.81525C28.6295 5.66639 28.6618 5.5228 28.7077 5.38672L28.4837 5.41378C27.6326 5.51528 26.8808 5.94531 26.3673 6.62569C25.8546 7.30533 25.6501 8.13908 25.7915 8.97509L28.2784 23.6691V23.6684Z" fill="#7F7F7F"/>
<path d="M33.1112 30.9819L32.4835 37.1813C32.0015 41.9417 27.9358 45.5075 23.2092 45.5082C22.9032 45.5082 22.5942 45.4932 22.2837 45.4624C19.7967 45.2181 17.5586 44.0212 15.9798 42.0935C14.4198 40.1877 13.6966 37.7947 13.9432 35.3566L14.6574 28.3047L13.2741 28.5768L12.6005 35.2273C12.3185 38.015 13.1455 40.7508 14.9296 42.9303C16.7361 45.1376 19.299 46.5066 22.1461 46.7871C27.9982 47.3622 33.2375 43.1115 33.8247 37.3113L34.4524 31.1142L33.142 30.9856L33.1105 30.9826L33.1112 30.9819Z" fill="#7F7F7F"/>
<path d="M15.0943 22.3071C15.0763 22.2169 15.0951 22.1237 15.1462 22.0478C15.1973 21.9718 15.2763 21.9192 15.3665 21.9012L20.4284 20.9058L19.5375 16.428L14.4741 17.4234C14.2869 17.4595 14.1065 17.3392 14.0689 17.152L13.0712 12.1367L8.54686 13.0261L9.54451 18.0399C9.56255 18.1301 9.54376 18.2233 9.49263 18.2993C9.44151 18.3752 9.36257 18.4278 9.27235 18.4459L4.21045 19.442L5.10134 23.9198L10.1647 22.9244C10.1873 22.9199 10.2099 22.9176 10.2317 22.9176C10.3925 22.9176 10.5369 23.0311 10.57 23.1958L11.5676 28.2111L16.092 27.3217L15.0951 22.3079L15.0943 22.3071Z" fill="#7F7F7F"/>
<path d="M45.9491 8.54867C45.5822 7.78258 44.9327 7.21496 44.1192 6.94958L43.9019 6.87891C43.92 7.024 43.9237 7.17136 43.9087 7.32022C43.8764 7.63898 43.7681 7.93219 43.605 8.18404L43.6546 8.19983C44.123 8.35244 44.5094 8.67722 44.7161 9.09072C44.9372 9.53278 44.9605 10.029 44.7823 10.4898L39.3979 24.4103C39.334 24.5749 39.3385 24.7546 39.4107 24.9155C39.4836 25.0786 39.6166 25.2034 39.7851 25.2673C40.1331 25.3989 40.5248 25.2267 40.6579 24.8824L46.0423 10.962C46.3483 10.1703 46.3152 9.31325 45.9491 8.54791V8.54867Z" fill="#7F7F7F"/>
<path d="M39.54 25.9146C39.1979 25.7853 38.928 25.5305 38.7799 25.1982C38.7393 25.1079 38.7108 25.0147 38.6912 24.92C37.9063 25.3433 36.629 25.8545 35.0397 25.8545C34.8044 25.8545 34.5615 25.8432 34.3134 25.8184C32.3858 25.6289 30.9867 24.7358 30.2011 24.084C30.1627 24.1727 30.1161 24.2592 30.059 24.3396C29.847 24.6366 29.532 24.8335 29.1703 24.8944C29.0937 24.9072 29.0177 24.9132 28.9425 24.9132C28.823 24.9132 28.7065 24.8974 28.5952 24.8674C28.7884 25.344 29.0914 25.8725 29.5643 26.3657C30.2544 27.0852 31.0378 27.4423 31.5724 27.6145C32.0528 27.7686 32.364 28.2467 32.3129 28.7504L32.2061 29.8037C32.1956 29.9067 32.2264 30.0082 32.2926 30.0894C32.3603 30.1721 32.4565 30.2232 32.564 30.2338L32.8361 30.2608L34.8645 30.46L35.1374 30.4871C35.3577 30.5089 35.5539 30.3503 35.5765 30.1338L35.6832 29.0805C35.7344 28.5775 36.1343 28.1708 36.635 28.1122C37.1944 28.0475 38.0334 27.8498 38.8551 27.2784C39.4182 26.8867 39.8204 26.4289 40.1061 25.9988C40.079 26.0003 40.0512 26.0018 40.0242 26.0018C39.8633 26.0018 39.6994 25.9733 39.54 25.9131V25.9146Z" fill="#7F7F7F"/>
</svg>
