<svg width="50" height="51" viewBox="0 0 50 51" fill="none" xmlns="http://www.w3.org/2000/svg">
<path d="M45.163 5.83691C42.7717 3.39126 39.5652 2.08691 36.1413 2.08691C32.7173 2.08691 29.5652 3.39126 27.1195 5.83691L4.83691 28.1195C2.39126 30.5652 1.08691 33.7717 1.08691 37.1413C1.08691 40.5108 2.39126 43.7717 4.83691 46.163C7.22822 48.5543 10.4347 49.913 13.8587 49.913C17.2826 49.913 20.4891 48.6087 22.8804 46.163L45.2173 23.826C47.6087 21.4347 48.9673 18.2282 48.9673 14.8043C48.9673 11.3804 47.6087 8.22822 45.163 5.83691ZM19.7826 43.1195C18.2065 44.6956 16.0869 45.5652 13.8587 45.5652C11.6304 45.5652 9.51083 44.6956 7.93474 43.1195C6.35865 41.5434 5.48909 39.4239 5.48909 37.1956C5.48909 34.9673 6.35865 32.8478 7.93474 31.2717L17.0108 22.1956C19.5108 23.826 25.6521 28.2282 28.913 34.0434L19.7826 43.1195ZM42.1195 20.7826L31.6847 31.2173C28.2065 25.6195 22.663 21.3804 19.7282 19.3695L30.2173 8.88039C31.7934 7.30431 33.913 6.43474 36.1413 6.43474C38.3695 6.43474 40.4891 7.30431 42.0652 8.88039C43.6413 10.4565 44.5108 12.576 44.5108 14.8043C44.5108 17.0326 43.6956 19.2065 42.1195 20.7826ZM31.25 14.4239C32.0108 15.1847 32.0108 16.3804 31.25 17.1413L28.6413 19.75C28.2608 20.1304 27.7717 20.2934 27.2826 20.2934C26.7934 20.2934 26.3043 20.1304 25.9239 19.75C25.163 18.9891 25.163 17.7934 25.9239 17.0326L28.5326 14.4239C29.2934 13.663 30.4891 13.663 31.25 14.4239ZM35.5978 10.0217C35.9782 10.4021 36.25 11 36.25 11.5434C36.25 12.0869 36.0326 12.6847 35.5978 13.0652C35.2173 13.4456 34.6195 13.7173 34.076 13.7173C33.4782 13.7173 32.9347 13.5 32.5543 13.0652C32.1739 12.6304 31.9021 12.0869 31.9021 11.5434C31.9021 10.9456 32.1195 10.4021 32.5543 10.0217C32.9891 9.58691 33.5326 9.36952 34.076 9.36952C34.6739 9.36952 35.2173 9.64126 35.5978 10.0217Z" fill="#7F7F7F"/>
</svg>
