<svg width="220" height="523" viewBox="0 0 220 523" fill="none" xmlns="http://www.w3.org/2000/svg">
<path d="M112.673 299.212C111.903 308.277 118.056 356.258 121.231 375.072C122.743 383.985 126.888 398.507 125.397 406.217C123.267 416.963 122.652 430.87 123.824 438.968C124.564 443.885 126.891 466.565 123.561 474.86C121.819 479.211 118.626 501.503 118.626 501.503C110.308 522.505 115.002 521.472 115.002 521.472C117.578 524.632 121.989 521.72 121.989 521.72C125.349 523.862 127.676 521.211 127.676 521.211C130.56 523.599 133.922 520.917 133.922 520.917C137.546 522.799 140.906 519.33 140.906 519.33C142.987 520.378 143.496 519.054 143.496 519.054C149.741 518.654 140.012 498.67 140.012 498.67C137.683 480.722 142.324 470.733 142.324 470.733C157.527 425.649 158.299 413.684 152.222 396.694C150.51 391.789 150.077 389.847 150.865 387.717C152.685 382.803 151.359 363.034 153.579 355.185C157.864 340.045 162.09 301.651 164.293 283.736C167.253 259.605 153.807 227.249 153.807 227.249C150.862 214.082 155.18 167.169 155.18 167.169C161.209 176.551 160.978 193.111 160.978 193.111C160.021 210.479 175.009 237.023 175.009 237.023C182.21 247.992 184.937 258.399 184.937 259.172C184.937 262.332 184.246 269.981 184.246 269.981L184.522 276.643C184.646 278.34 185.601 284.181 185.446 287.005C184.322 304.38 187.082 301.111 187.082 301.111C189.411 301.111 191.971 287.129 191.971 287.129C191.971 290.735 191.09 301.529 193.035 305.601C195.362 310.457 197.074 304.768 197.104 303.626C197.719 281.502 199.049 287.298 199.049 287.298C200.343 305.246 201.933 309.3 204.784 307.897C206.944 306.867 204.969 286.359 204.969 286.359C208.668 298.541 211.474 300.481 211.474 300.481C217.579 304.768 213.803 292.927 212.955 290.583C208.438 278.125 208.298 273.807 208.298 273.807C213.943 285.002 218.197 284.587 218.197 284.587C223.701 282.829 213.385 266.978 207.341 259.384C204.257 255.515 200.279 250.335 199.125 247.258C197.243 242.047 195.823 225.294 195.823 225.294C195.253 205.526 190.366 196.94 190.366 196.94C182.01 183.565 180.438 158.616 180.438 158.616L180.068 116.494C177.138 87.7621 155.967 87.5545 155.967 87.5545C134.568 84.369 131.59 77.4564 131.59 77.4564C127.058 70.9336 129.648 58.43 129.648 58.43C133.408 55.3712 134.859 47.2507 134.859 47.2507C141.104 42.4624 140.797 35.456 137.913 35.532C135.599 35.5928 136.123 33.6759 136.123 33.6759C140.027 2.13582 112.027 0.525391 112.027 0.525391H107.753C107.753 0.525391 79.74 2.13582 83.6395 33.6684C83.6395 33.6684 84.1637 35.5877 81.829 35.5244C78.9525 35.4484 78.6841 42.4548 84.9056 47.2431C84.9056 47.2431 86.3539 55.361 90.1167 58.4224C90.1167 58.4224 92.707 70.926 88.1745 77.4488C88.1745 77.4488 85.2069 84.3615 63.7978 87.5469C63.7978 87.5469 42.5913 87.7545 39.7072 116.487L39.3071 158.608C39.3071 158.608 37.765 183.557 29.3761 196.932C29.3761 196.932 24.5119 205.521 23.9498 225.287C23.9498 225.287 22.5242 242.039 20.6504 247.25C19.5084 250.312 15.533 255.492 12.4236 259.377C6.3262 266.955 -3.92131 282.774 1.56073 284.579C1.56073 284.579 5.83749 284.994 11.4588 273.8C11.4588 273.8 11.3423 278.087 6.83261 290.575C5.94637 292.889 2.17604 304.73 8.28353 300.473C8.28353 300.473 11.1119 298.531 14.7886 286.351C14.7886 286.351 12.816 306.859 15.0114 307.89C17.8803 309.295 19.4451 305.239 20.739 287.291C20.739 287.291 22.0659 281.495 22.6812 303.618C22.7116 304.76 24.3853 310.45 26.7224 305.593C28.695 301.521 27.8087 290.745 27.8087 287.121C27.8087 287.121 30.3383 301.104 32.7033 301.104C32.7033 301.104 35.4861 304.373 34.3441 286.997C34.1593 284.159 35.1544 278.332 35.2785 276.636L35.5469 269.974C35.5469 269.974 34.8531 262.342 34.8531 259.164C34.8531 258.377 37.5827 247.985 44.7816 237.016C44.7816 237.016 59.754 210.459 58.7892 193.103C58.7892 193.103 58.5816 176.543 64.6106 167.162C64.6106 167.162 68.8899 214.072 65.9906 227.242C65.9906 227.242 52.5222 259.597 55.4924 283.728C57.6802 301.691 61.8987 340.035 66.1932 355.177C68.4366 363.011 67.1098 382.775 68.9076 387.71C69.7179 389.854 69.2925 391.83 67.5504 396.686C61.5062 413.677 62.276 425.644 77.4788 470.725C77.4788 470.725 82.1582 480.715 79.7932 498.662C79.7932 498.662 70.08 518.646 76.3014 519.046C76.3014 519.046 76.7876 520.37 78.8918 519.322C78.8918 519.322 82.2519 522.791 85.883 520.91C85.883 520.91 89.2456 523.594 92.1196 521.203C92.1196 521.203 94.4238 523.854 97.7839 521.712C97.7839 521.712 102.195 524.688 104.816 521.464C104.816 521.464 109.472 522.497 101.182 501.496C101.182 501.496 98.0068 479.231 96.2571 474.853C92.9197 466.56 95.2771 443.832 95.9887 438.96C97.1357 430.817 96.5204 416.943 94.4238 406.209C92.8893 398.517 97.0446 383.993 98.579 375.064C101.732 356.268 107.91 308.285 107.138 299.204L109.69 300.101C111.518 300.106 112.673 299.212 112.673 299.212Z" fill="url(#paint0_linear_288_2635)"/>
<g filter="url(#filter0_d_288_2635)">
<path d="M153.186 220.605C166.077 223.829 174.179 228.494 174.179 233.684C174.179 243.412 145.713 251.299 110.599 251.299C75.4855 251.299 47.02 243.412 47.02 233.684C47.02 228.699 54.4969 224.197 66.5137 220.992" stroke="#E95D5C" stroke-width="3.27584" stroke-linecap="round"/>
</g>
<g filter="url(#filter1_d_288_2635)">
<path d="M178.843 105.167C199.312 109.277 212.176 115.224 212.176 121.841C212.176 134.242 166.979 144.296 111.224 144.296C55.4698 144.296 10.272 134.242 10.272 121.841C10.272 115.485 22.1439 109.746 41.2243 105.661" stroke="#E95D5C" stroke-width="3.27584" stroke-linecap="round"/>
</g>
<g filter="url(#filter2_d_288_2635)">
<path d="M135.997 20.6484C143.852 22.621 148.788 25.476 148.788 28.6519C148.788 34.6046 131.445 39.4302 110.05 39.4302C88.6563 39.4302 71.313 34.6046 71.313 28.6519C71.313 25.601 75.8685 22.8462 83.19 20.8854" stroke="#E95D5C" stroke-width="3.27584" stroke-linecap="round"/>
</g>
<defs>
<filter id="filter0_d_288_2635" x="43.1984" y="218.967" width="134.802" height="38.3375" filterUnits="userSpaceOnUse" color-interpolation-filters="sRGB">
<feFlood flood-opacity="0" result="BackgroundImageFix"/>
<feColorMatrix in="SourceAlpha" type="matrix" values="0 0 0 0 0 0 0 0 0 0 0 0 0 0 0 0 0 0 127 0" result="hardAlpha"/>
<feOffset dy="2.18389"/>
<feGaussianBlur stdDeviation="1.09195"/>
<feComposite in2="hardAlpha" operator="out"/>
<feColorMatrix type="matrix" values="0 0 0 0 0.913725 0 0 0 0 0.364706 0 0 0 0 0.360784 0 0 0 0.37 0"/>
<feBlend mode="normal" in2="BackgroundImageFix" result="effect1_dropShadow_288_2635"/>
<feBlend mode="normal" in="SourceGraphic" in2="effect1_dropShadow_288_2635" result="shape"/>
</filter>
<filter id="filter1_d_288_2635" x="6.45039" y="103.529" width="209.548" height="46.7726" filterUnits="userSpaceOnUse" color-interpolation-filters="sRGB">
<feFlood flood-opacity="0" result="BackgroundImageFix"/>
<feColorMatrix in="SourceAlpha" type="matrix" values="0 0 0 0 0 0 0 0 0 0 0 0 0 0 0 0 0 0 127 0" result="hardAlpha"/>
<feOffset dy="2.18389"/>
<feGaussianBlur stdDeviation="1.09195"/>
<feComposite in2="hardAlpha" operator="out"/>
<feColorMatrix type="matrix" values="0 0 0 0 0.913725 0 0 0 0 0.364706 0 0 0 0 0.360784 0 0 0 0.37 0"/>
<feBlend mode="normal" in2="BackgroundImageFix" result="effect1_dropShadow_288_2635"/>
<feBlend mode="normal" in="SourceGraphic" in2="effect1_dropShadow_288_2635" result="shape"/>
</filter>
<filter id="filter2_d_288_2635" x="67.4914" y="19.0103" width="85.1183" height="26.4259" filterUnits="userSpaceOnUse" color-interpolation-filters="sRGB">
<feFlood flood-opacity="0" result="BackgroundImageFix"/>
<feColorMatrix in="SourceAlpha" type="matrix" values="0 0 0 0 0 0 0 0 0 0 0 0 0 0 0 0 0 0 127 0" result="hardAlpha"/>
<feOffset dy="2.18389"/>
<feGaussianBlur stdDeviation="1.09195"/>
<feComposite in2="hardAlpha" operator="out"/>
<feColorMatrix type="matrix" values="0 0 0 0 0.913725 0 0 0 0 0.364706 0 0 0 0 0.360784 0 0 0 0.37 0"/>
<feBlend mode="normal" in2="BackgroundImageFix" result="effect1_dropShadow_288_2635"/>
<feBlend mode="normal" in="SourceGraphic" in2="effect1_dropShadow_288_2635" result="shape"/>
</filter>
<linearGradient id="paint0_linear_288_2635" x1="109.881" y1="0.525391" x2="109.881" y2="522.964" gradientUnits="userSpaceOnUse">
<stop stop-color="#91E3CB"/>
<stop offset="0.5" stop-color="#4C94A0"/>
<stop offset="1" stop-color="#15383E"/>
</linearGradient>
</defs>
</svg>
