<svg width="50" height="40" viewBox="0 0 50 40" fill="none" xmlns="http://www.w3.org/2000/svg">
<g id="Group">
<path id="Vector" d="M14.7395 15.6956C15.798 16.0805 17.0422 16.2971 18.3779 16.298C20.1597 16.2953 21.7754 15.9158 23.0102 15.2528C23.6271 14.9186 24.1547 14.514 24.5596 13.9998C24.9607 13.4929 25.2501 12.8279 25.2494 12.0777C25.2501 11.3274 24.9607 10.6618 24.5596 10.1555C23.9505 9.38832 23.0736 8.85012 22.0158 8.45977C20.9579 8.07485 19.7139 7.85742 18.378 7.85742C16.5964 7.85911 14.9806 8.23873 13.7451 8.9027C13.1281 9.23686 12.6006 9.64132 12.1958 10.1555C11.7946 10.6618 11.5052 11.3274 11.5059 12.0777C11.5052 12.8279 11.7945 13.4927 12.1958 13.9998C12.8047 14.7662 13.6822 15.3052 14.7395 15.6956ZM13.2572 11.4253C13.5798 11.0039 14.2581 10.5325 15.158 10.2099C16.0571 9.8819 17.1736 9.68147 18.3779 9.68244C19.9828 9.67966 21.4334 10.0406 22.4184 10.5753C22.9105 10.839 23.2822 11.1474 23.4973 11.4255C23.7166 11.7097 23.7707 11.9138 23.7715 12.0779C23.7707 12.2409 23.7166 12.4459 23.4973 12.7301C23.1754 13.1507 22.4971 13.623 21.5972 13.9456C20.698 14.2736 19.5823 14.4731 18.3779 14.4731C16.7724 14.4748 15.3219 14.1149 14.3368 13.5803C13.8446 13.3164 13.473 13.0082 13.2573 12.7301C13.038 12.4459 12.9845 12.2409 12.9838 12.0779C12.9844 11.9137 13.0379 11.7096 13.2572 11.4253Z" fill="white"/>
<path id="Vector_2" d="M28.1445 2.49414C28.1488 2.49608 28.1539 2.49789 28.1582 2.49982L28.2152 2.52179L28.1445 2.49414Z" fill="white"/>
<path id="Vector_3" d="M8.61084 37.9122C8.60508 37.9104 8.59922 37.9074 8.59346 37.9046L8.52197 37.877L8.61084 37.9122Z" fill="white"/>
<path id="Vector_4" d="M36.7551 18.7134V12.0764C36.7559 11.098 36.5667 10.1605 36.2449 9.31227C35.9223 8.4621 35.4706 7.69671 34.9344 7.01586C33.3316 4.99404 30.9805 3.5414 28.1582 2.49878L28.1431 2.49347C25.307 1.46073 21.9651 0.877918 18.3778 0.876953C13.5934 0.882259 9.25205 1.90535 5.9499 3.67948L5.94844 3.68044C4.29951 4.5733 2.89024 5.65873 1.81992 7.0167C1.28457 7.69671 0.832815 8.4621 0.510256 9.31227C0.188381 10.1606 -0.00077884 11.0981 2.41052e-06 12.0766V28.3269C-0.00077884 29.3052 0.188381 30.2419 0.510256 31.0902C0.832815 31.9404 1.28457 32.7058 1.82002 33.3866C3.42285 35.4084 5.77237 36.8611 8.59326 37.9027L8.61201 37.9099C11.4488 38.9427 14.7899 39.5246 18.3779 39.5264H50V18.7136H36.7551V18.7134ZM3.67754 9.24003C4.78887 7.81248 6.78496 6.48381 9.34453 5.55623C11.9035 4.62322 15.0202 4.06983 18.3779 4.07068C22.8543 4.06802 26.9041 5.05711 29.7704 6.60682C31.2036 7.37848 32.3358 8.29098 33.0776 9.24003C33.8231 10.1962 34.1681 11.138 34.1688 12.0764C34.1681 13.0138 33.8231 13.9567 33.0776 14.9129C31.9663 16.3394 29.9703 17.6681 27.4106 18.5958C24.8517 19.5297 21.7356 20.0822 18.3778 20.0822C13.9008 20.084 9.85108 19.0949 6.98467 17.5461C5.55147 16.7744 4.41924 15.8619 3.67744 14.9129C2.93194 13.9567 2.58701 13.0138 2.58623 12.0764C2.58711 11.1381 2.93203 10.1962 3.67754 9.24003ZM34.1688 16.1426V20.0822H28.4822C29.141 19.8167 29.7768 19.5333 30.362 19.2178C31.92 18.3757 33.2082 17.367 34.1397 16.1818L34.1688 16.1426ZM47.4137 36.3325H42.9799V28.2706H41.502V36.3325H38.2387V31.9661H36.7607V36.3325H33.4968V28.2706H32.0188V36.3325H28.7549V31.9661H27.277V36.3325H24.0138V28.2706H22.5358V36.3325H19.2727V31.9661H17.7947V36.3165C16.6726 36.2951 15.5821 36.2131 14.5308 36.0741V28.2706H13.0528V35.8388C10.7313 35.4022 8.65303 34.6982 6.98467 33.7964C5.55147 33.0247 4.41924 32.1122 3.67744 31.1632C2.93194 30.2069 2.58701 29.2641 2.58623 28.3268V16.1426L2.61514 16.1818C4.01299 17.9552 6.20889 19.3506 8.92578 20.3461C11.6436 21.337 14.888 21.9064 18.3777 21.9072H47.4135V36.3325H47.4137Z" fill="white"/>
</g>
</svg>
