<svg width="50" height="51" viewBox="0 0 50 51" fill="none" xmlns="http://www.w3.org/2000/svg">
<g id="body-weight-scales-icon 1" clip-path="url(#clip0_288_2515)">
<g id="Group">
<path id="Vector" d="M17.4032 42.7974H32.5968C32.6538 42.7974 32.7067 42.822 32.7474 42.8589C32.784 42.8958 32.8084 42.9491 32.8084 43.0106V45.1466C32.8084 45.204 32.784 45.2573 32.7474 45.2983C32.7108 45.3352 32.6538 45.3598 32.5968 45.3598H17.4032C17.3462 45.3598 17.2933 45.3352 17.2526 45.2983C17.216 45.2614 17.1916 45.204 17.1916 45.1466V43.0106C17.1916 42.9532 17.216 42.8999 17.2526 42.8589C17.2892 42.822 17.3421 42.7974 17.4032 42.7974ZM25.1424 5.82631C26.5177 5.82631 27.832 6.10099 29.0324 6.60115C30.2775 7.12182 31.4006 7.88436 32.3364 8.82729C33.2723 9.77023 34.0291 10.9017 34.5459 12.1563C35.0423 13.3657 35.3149 14.6899 35.3149 16.0756C35.3149 17.4654 35.0423 18.7855 34.5459 19.9949C34.0291 21.2494 33.2723 22.3809 32.3364 23.3239C31.4006 24.2668 30.2775 25.0293 29.0324 25.55C27.832 26.0502 26.5177 26.3248 25.1424 26.3248C23.7671 26.3248 22.4528 26.0502 21.2524 25.55C20.0073 25.0293 18.8843 24.2668 17.9484 23.3239C17.0125 22.3809 16.2557 21.2494 15.7389 19.9949C15.2425 18.7855 14.9699 17.4613 14.9699 16.0756C14.9699 14.6899 15.2425 13.3657 15.7389 12.1563C16.2557 10.9017 17.0125 9.77023 17.9484 8.82729C18.8843 7.88436 20.0073 7.12182 21.2524 6.60115C22.4528 6.10099 23.7671 5.82631 25.1424 5.82631ZM5.95703 3.63707H15.5233C16.1214 3.1697 16.7725 2.74333 17.4683 2.36616C18.1763 1.98489 18.929 1.65691 19.7184 1.39043C20.5444 1.10755 21.4152 0.890264 22.3145 0.742675C23.1934 0.599185 24.1007 0.525391 25.0244 0.525391C25.9481 0.525391 26.8555 0.599185 27.7344 0.742675C28.6336 0.890264 29.5044 1.10755 30.3304 1.39043C31.1198 1.66101 31.8726 1.98899 32.5806 2.36616C33.2804 2.74333 33.9315 3.1656 34.5256 3.63707H44.0389C44.8405 3.63707 45.6095 3.80105 46.3135 4.09213C47.0418 4.39551 47.701 4.84648 48.2503 5.39994C48.7996 5.9534 49.2432 6.61345 49.5483 7.3514C49.8413 8.05655 50 8.83139 50 9.64313V44.5275C50 45.3352 49.8372 46.11 49.5483 46.8193C49.2472 47.5531 48.7996 48.2173 48.2503 48.7707C47.701 49.3242 47.0459 49.771 46.3135 50.0785C45.6136 50.3737 44.8446 50.5336 44.0389 50.5336H5.95703C5.15544 50.5336 4.38639 50.3696 3.68245 50.0785C2.9541 49.7751 2.29492 49.3242 1.74561 48.7707C1.19629 48.2173 0.752767 47.5572 0.447591 46.8193C0.16276 46.1059 0 45.3311 0 44.5234V9.63903C0 8.83139 0.16276 8.05655 0.45166 7.3473C0.752767 6.61345 1.20036 5.9493 1.74967 5.39584C2.29899 4.84238 2.9541 4.39551 3.68652 4.08803C4.38639 3.79695 5.15544 3.63707 5.95703 3.63707ZM6.75863 42.3998C7.21843 42.3998 7.63753 42.5884 7.93864 42.8917C8.23975 43.1951 8.42692 43.6174 8.42692 44.0807C8.42692 44.5439 8.23975 44.9662 7.93864 45.2696C7.63753 45.5729 7.21843 45.7615 6.75863 45.7615C6.29883 45.7615 5.88379 45.5729 5.57861 45.2696C5.27751 44.9662 5.09033 44.5439 5.09033 44.0807C5.09033 43.6174 5.27751 43.1951 5.57861 42.8917L5.58675 42.8835C5.89193 42.5843 6.3029 42.3998 6.75863 42.3998ZM6.75863 9.13477C7.21843 9.13477 7.63753 9.32336 7.93864 9.62674C8.23975 9.93011 8.42692 10.3524 8.42692 10.8156C8.42692 11.2789 8.23975 11.6971 7.93864 12.0046C7.63753 12.3079 7.21843 12.4965 6.75863 12.4965C6.29883 12.4965 5.88379 12.3079 5.57861 12.0046C5.27751 11.7012 5.09033 11.2789 5.09033 10.8156C5.09033 10.3524 5.27751 9.93011 5.57861 9.62674L5.58675 9.61854C5.89193 9.31926 6.3029 9.13477 6.75863 9.13477ZM43.2414 9.13477C43.7012 9.13477 44.1162 9.32336 44.4214 9.62674C44.7225 9.93011 44.9097 10.3524 44.9097 10.8156C44.9097 11.2789 44.7225 11.6971 44.4214 12.0046C44.1203 12.3079 43.7012 12.4965 43.2414 12.4965C42.7816 12.4965 42.3625 12.3079 42.0614 12.0046L42.0532 11.9964C41.7562 11.693 41.5731 11.2748 41.5731 10.8197C41.5731 10.3565 41.7603 9.93421 42.0614 9.63083C42.3625 9.32336 42.7816 9.13477 43.2414 9.13477ZM43.2414 42.3998C43.7012 42.3998 44.1162 42.5884 44.4214 42.8917C44.7225 43.1951 44.9097 43.6174 44.9097 44.0807C44.9097 44.5439 44.7225 44.9662 44.4214 45.2696L44.4132 45.2778C44.1121 45.577 43.6971 45.7615 43.2454 45.7615C42.7856 45.7615 42.3665 45.5729 42.0654 45.2696C41.7643 44.9662 41.5772 44.5439 41.5772 44.0807C41.5772 43.6174 41.7643 43.1951 42.0654 42.8917C42.3625 42.5884 42.7816 42.3998 43.2414 42.3998ZM15.3524 5.76071H5.95703C5.4362 5.76071 4.94385 5.86731 4.48812 6.05589C4.01611 6.25268 3.59294 6.54376 3.23486 6.90043C2.87679 7.26121 2.59196 7.68757 2.39665 8.16314C2.20947 8.61821 2.10368 9.11837 2.10368 9.64313V44.5275C2.10368 45.0523 2.20947 45.5525 2.39665 46.0075C2.59196 46.4831 2.88086 46.9095 3.23486 47.2702C3.59294 47.631 4.01611 47.918 4.48812 48.1148C4.93978 48.3034 5.4362 48.4099 5.95703 48.4099H44.0389C44.5597 48.4099 45.0521 48.3034 45.5078 48.1148C45.9798 47.918 46.403 47.6269 46.7611 47.2702C47.1191 46.9095 47.404 46.4831 47.5993 46.0075C47.7865 45.5525 47.8923 45.0523 47.8923 44.5275V9.63903C47.8923 9.11427 47.7865 8.61411 47.5993 8.15904C47.404 7.68348 47.1151 7.25711 46.7611 6.89633C46.403 6.53556 45.9798 6.24858 45.5078 6.05179C45.0562 5.86321 44.5597 5.75661 44.0389 5.75661H34.1634C34.1512 5.75661 34.1349 5.75661 34.1227 5.75251C34.0169 5.74841 33.9071 5.72792 33.8053 5.69102L33.7972 5.68692C33.6873 5.64592 33.5856 5.58853 33.492 5.50653C32.959 5.05966 32.3649 4.65379 31.7179 4.29712C31.0791 3.94454 30.3914 3.64117 29.6631 3.39108C28.9469 3.1451 28.1901 2.95652 27.4007 2.82942C26.6357 2.70643 25.8423 2.64084 25.0203 2.64084C24.2025 2.64084 23.4049 2.70643 22.64 2.82942C21.8587 2.96472 21.1019 3.1533 20.3857 3.39518C19.6696 3.63707 18.9941 3.93635 18.3675 4.28072C17.7368 4.6251 17.1509 5.02277 16.6178 5.45734C16.5243 5.55163 16.4103 5.62542 16.2842 5.67462C16.158 5.72792 16.0238 5.75251 15.8854 5.75251H15.3524V5.76071ZM32.5521 16.5839C32.3853 16.5839 32.2306 16.5142 32.1208 16.4035C32.0109 16.2929 31.9417 16.1371 31.9417 15.969C31.9417 15.7968 32.0109 15.6451 32.1208 15.5344C32.2306 15.4237 32.3853 15.354 32.5521 15.354H33.7809C33.7036 14.3988 33.4717 13.4846 33.1095 12.64C32.7393 11.7668 32.2306 10.9673 31.6121 10.2704L30.8634 11.0247L30.8553 11.0329C30.7373 11.1477 30.5827 11.2051 30.4321 11.2051C30.2775 11.2051 30.1188 11.1436 30.0008 11.0247C29.8828 10.9058 29.8218 10.746 29.8218 10.5902C29.8218 10.4303 29.8828 10.2745 30.0008 10.1556L30.7373 9.41355C30.0374 8.81499 29.2399 8.33123 28.3732 7.97865C27.535 7.63838 26.6276 7.42929 25.6836 7.3678V8.692C25.6836 8.86419 25.6144 9.01588 25.5046 9.12657C25.3947 9.23726 25.2401 9.30696 25.0732 9.30696C24.9023 9.30696 24.7518 9.23726 24.6419 9.12657C24.5321 9.01588 24.4629 8.86009 24.4629 8.692V7.3719C23.5229 7.44569 22.6278 7.67118 21.7977 8.02375C20.9391 8.38863 20.1538 8.88469 19.4621 9.49145L20.3166 10.3524C20.4346 10.4713 20.4956 10.6312 20.4956 10.787C20.4956 10.9468 20.4346 11.1026 20.3166 11.2215C20.1986 11.3404 20.0399 11.4019 19.8853 11.4019C19.7306 11.4019 19.5719 11.3404 19.4539 11.2215L18.5994 10.3606C17.9972 11.0616 17.5049 11.857 17.1468 12.7261C16.8009 13.5666 16.5771 14.4726 16.508 15.4237H17.867C18.0379 15.4237 18.1885 15.4934 18.2983 15.6041C18.4082 15.7148 18.4774 15.8706 18.4774 16.0387C18.4774 16.2068 18.4082 16.3626 18.2983 16.4732C18.1885 16.5839 18.0339 16.6536 17.867 16.6536H16.5039C16.5649 17.613 16.7806 18.5313 17.1265 19.3799C17.4805 20.2573 17.9769 21.0608 18.5791 21.766L19.4214 20.9173C19.5394 20.7984 19.6981 20.7369 19.8527 20.7369C20.0114 20.7369 20.166 20.7984 20.284 20.9173C20.402 21.0362 20.4631 21.1961 20.4631 21.3519C20.4631 21.5118 20.402 21.6676 20.284 21.7865L19.4377 22.6392C20.1375 23.2583 20.9432 23.7666 21.814 24.1356C22.6603 24.4923 23.5758 24.7177 24.5361 24.7833V23.7297C24.5361 23.5616 24.6053 23.4058 24.7152 23.2952C24.825 23.1845 24.9797 23.1148 25.1465 23.1148C25.3133 23.1148 25.4679 23.1845 25.5778 23.2952C25.6877 23.4058 25.7568 23.5616 25.7568 23.7297V24.7915C26.7171 24.7218 27.6367 24.4964 28.4871 24.1397C29.3661 23.7707 30.1676 23.2583 30.8716 22.6351L30.07 21.8275C29.952 21.7086 29.891 21.5487 29.891 21.3929C29.891 21.233 29.952 21.0772 30.07 20.9583C30.188 20.8394 30.3467 20.7779 30.5013 20.7779C30.66 20.7779 30.8146 20.8394 30.9326 20.9583L31.7261 21.7578C32.3324 21.0444 32.8288 20.2286 33.1828 19.343C33.5246 18.4821 33.7362 17.5556 33.7931 16.588H32.5521V16.5839ZM25.8586 17.1333C25.6877 17.3219 25.4639 17.4244 25.2319 17.4408C24.9959 17.4572 24.7559 17.3834 24.5605 17.2112L24.5483 17.203C24.3612 17.0349 24.2594 16.8053 24.2472 16.5757C24.231 16.338 24.3042 16.0961 24.4751 15.8993L27.6733 12.2136C27.8402 12.021 28.0721 11.9144 28.3081 11.898C28.5441 11.8816 28.7842 11.9554 28.9795 12.1276C29.1707 12.2956 29.2765 12.5293 29.2928 12.7671C29.3091 13.0049 29.2358 13.2468 29.0649 13.4436C27.9948 14.6694 26.9165 15.8952 25.8586 17.1333Z" fill="white"/>
</g>
</g>
<defs>
<clipPath id="clip0_288_2515">
<rect width="50" height="50" fill="white" transform="translate(0 0.525391)"/>
</clipPath>
</defs>
</svg>
