<svg width="50" height="50" viewBox="0 0 50 50" fill="none" xmlns="http://www.w3.org/2000/svg">
<g id="measure-height-icon 1" clip-path="url(#clip0_280_2722)">
<g id="Group">
<path id="Vector" fill-rule="evenodd" clip-rule="evenodd" d="M48.5923 30.1595C47.2501 30.8797 45.5189 30.4484 44.7451 29.1992L42.1745 25.057C42.1745 31.7708 42.2663 40.2669 42.2663 46.9889C42.2663 48.645 40.8105 49.9959 39.0356 49.9959C37.2563 49.9959 35.8048 48.641 35.8048 46.9889V33.7443H33.9906V46.993C33.9906 48.6491 32.5348 50 30.7598 50C28.9805 50 27.5291 48.645 27.5291 46.993C27.5291 40.3036 27.6121 31.84 27.6121 25.1628L25.1071 29.2033C24.3333 30.4525 22.6021 30.8838 21.2599 30.1636C19.9178 29.4434 19.4544 27.832 20.2282 26.5828L26.7815 16.0197C29.1204 12.2518 40.452 11.7879 42.9746 15.8529L49.6284 26.5828C50.3978 27.828 49.9344 29.4393 48.5923 30.1595ZM11.2617 36.9303C10.7327 36.9303 10.3086 36.5885 10.3086 36.1654C10.3086 35.7422 10.7371 35.4004 11.2617 35.4004H14.4006V31.1035H7.85608C7.3271 31.1035 6.90303 30.7617 6.90303 30.3385C6.90303 29.9154 7.33147 29.5736 7.85608 29.5736H14.4006V24.7884H11.2617C10.7327 24.7884 10.3086 24.4466 10.3086 24.0234C10.3086 23.6003 10.7371 23.2585 11.2617 23.2585H14.4006V18.8721H7.85608C7.3271 18.8721 6.90303 18.5303 6.90303 18.1071C6.90303 17.6839 7.33147 17.3421 7.85608 17.3421H14.4006V12.7238H11.2617C10.7327 12.7238 10.3086 12.382 10.3086 11.9588C10.3086 11.5356 10.7371 11.1938 11.2617 11.1938H14.4006V6.63656H7.85608C7.3271 6.63656 6.90303 6.29476 6.90303 5.87158C6.90303 5.44841 7.33147 5.10661 7.85608 5.10661H14.4006V1.7985H1.66565V47.6115H14.4006V43.0908H7.85608C7.3271 43.0908 6.90303 42.749 6.90303 42.3258C6.90303 41.9027 7.33147 41.5609 7.85608 41.5609H14.4006V36.9303H11.2617ZM0.913701 0.24821H15.1526C15.4018 0.24821 15.6291 0.341797 15.7952 0.500488C15.9614 0.655111 16.0663 0.866699 16.0663 1.09863V48.3114C16.0663 48.5433 15.9657 48.7549 15.7952 48.9095C15.6291 49.0682 15.3974 49.1618 15.1526 49.1618H0.913701C0.66451 49.1618 0.437178 49.0682 0.27105 48.9095C0.100551 48.7549 0 48.5433 0 48.3114V1.09863C0 0.866699 0.100551 0.655111 0.27105 0.500488C0.437178 0.341797 0.66451 0.24821 0.913701 0.24821ZM34.9217 0C38.4847 0 41.3701 2.68555 41.3701 6.00179C41.3701 9.31803 38.4847 12.0036 34.9217 12.0036C31.3587 12.0036 28.4734 9.31803 28.4734 6.00179C28.4734 2.68555 31.3631 0 34.9217 0Z" fill="white"/>
</g>
</g>
<defs>
<clipPath id="clip0_280_2722">
<rect width="50" height="50" fill="white"/>
</clipPath>
</defs>
</svg>
