<svg width="51" height="50" viewBox="0 0 51 50" fill="none" xmlns="http://www.w3.org/2000/svg">
<g id="running-svgrepo-com 1" clip-path="url(#clip0_288_8888)">
<path id="Vector" d="M25.7084 6.2513C25.7084 5.46842 25.9405 4.70312 26.3755 4.05217C26.8104 3.40123 27.4286 2.89388 28.1519 2.59428C28.8752 2.29468 29.6711 2.2163 30.4389 2.36903C31.2068 2.52176 31.9121 2.89876 32.4657 3.45234C33.0192 4.00592 33.3962 4.71123 33.549 5.47907C33.7017 6.24691 33.6233 7.0428 33.3237 7.76609C33.0241 8.48938 32.5168 9.10759 31.8658 9.54254C31.2149 9.97749 30.4496 10.2096 29.6667 10.2096C29.1467 10.2102 28.6318 10.1082 28.1513 9.90944C27.6708 9.71071 27.2342 9.41916 26.8665 9.05149C26.4988 8.68382 26.2073 8.24724 26.0086 7.76674C25.8098 7.28625 25.7078 6.77127 25.7084 6.2513ZM31.0584 16.4451C31.6 13.8159 28.1438 12.568 25.0292 11.4763L15.2709 13.9805L16.4729 22.6346C16.4729 24.1096 19.8292 23.6534 19.7792 22.5326L18.9667 16.8867L24.4417 15.8867L22.3625 26.1367L29.8667 34.843L26.8063 44.1409C26.681 44.3709 26.6027 44.6235 26.5758 44.884C26.5489 45.1445 26.5739 45.4077 26.6495 45.6585C26.7251 45.9093 26.8497 46.1425 27.016 46.3448C27.1824 46.547 27.3873 46.7142 27.6188 46.8367C28.7084 47.2451 29.9604 46.4055 30.7146 44.9138C30.8229 44.6971 34.6813 34.2326 34.6813 34.2326L28.8104 27.4909L31.0604 16.443L31.0584 16.4451ZM18.6125 34.8784L11.875 35.9784C11.3623 36.1164 10.9186 36.4391 10.6294 36.8844C10.3402 37.3298 10.2259 37.8663 10.3084 38.3909C10.3813 39.5138 11.8438 40.2242 13.0479 40.0617L20.0479 38.6826L25.3396 32.7846L22.8938 29.9492L18.6125 34.8784ZM36.5396 18.7534L32.4688 19.9576L31.6896 23.7846L37.6584 22.1576C38.016 21.9436 38.2903 21.6143 38.4359 21.2239C38.5816 20.8334 38.59 20.4049 38.4598 20.009C38.3296 19.6131 38.0686 19.2733 37.7196 19.0454C37.3706 18.8176 36.9545 18.7133 36.5396 18.7534Z" fill="white"/>
</g>
<defs>
<clipPath id="clip0_288_8888">
<rect width="50" height="50" fill="white" transform="translate(0.5)"/>
</clipPath>
</defs>
</svg>
