<svg width="51" height="50" viewBox="0 0 51 50" fill="none" xmlns="http://www.w3.org/2000/svg">
<g id="blood-pressure-svgrepo-com">
<path id="Vector" fill-rule="evenodd" clip-rule="evenodd" d="M15.8847 7.29297C18.9311 7.29297 21.8786 8.4952 24.0636 10.4671C24.4292 10.7971 24.7735 11.1487 25.0933 11.5197L25.5001 11.9916L25.9069 11.5197C26.2266 11.1487 26.5709 10.7971 26.9365 10.4671C29.1215 8.4952 32.069 7.29297 35.1155 7.29297C41.4016 7.29297 46.3334 12.1657 46.3334 18.3767C46.3334 20.8031 45.6333 23.1032 44.3128 25.4367C43.8816 24.831 43.3903 24.271 42.8475 23.7656C43.7958 21.912 44.2501 20.1576 44.2501 18.3767C44.2501 13.3398 40.2748 9.3763 35.1155 9.3763C32.1807 9.3763 29.3302 10.7388 27.4849 12.8798L27.0781 13.3518L25.5001 15.1824L23.9221 13.3518L23.5154 12.8799C21.6701 10.7389 18.8195 9.3763 15.8847 9.3763C10.7254 9.3763 6.75008 13.3398 6.75008 18.3767C6.75008 21.5011 8.14845 24.5439 11.1588 28.1804C14.1986 31.8523 18.5955 35.7988 24.1508 40.7761L24.1546 40.7795L24.1877 40.809L24.1899 40.8112L25.5067 41.9957L26.8477 40.7986L26.8489 40.7976L26.8498 40.7968L26.8517 40.795L26.9036 40.7485C27.2617 40.4269 27.6152 40.1096 27.9636 39.7965C28.482 40.2768 29.0469 40.7076 29.6509 41.0811C29.2064 41.4808 28.7549 41.8862 28.2965 42.2978L28.2955 42.2987L28.2403 42.3482L28.239 42.3492L25.5014 44.793L22.7614 42.3285C17.2484 37.3892 12.7151 33.3273 9.55407 29.5089C6.39925 25.698 4.66675 22.1935 4.66675 18.3767C4.66675 12.1657 9.59852 7.29297 15.8847 7.29297Z" fill="white"/>
<path id="Vector_2" fill-rule="evenodd" clip-rule="evenodd" d="M35.3958 40.6237C40.2858 40.6237 44.2499 36.6595 44.2499 31.7695C44.2499 26.8795 40.2858 22.9154 35.3958 22.9154C30.5058 22.9154 26.5416 26.8795 26.5416 31.7695C26.5416 36.6595 30.5058 40.6237 35.3958 40.6237ZM35.3958 42.707C41.4364 42.707 46.3333 37.8102 46.3333 31.7695C46.3333 25.7289 41.4364 20.832 35.3958 20.832C29.3551 20.832 24.4583 25.7289 24.4583 31.7695C24.4583 37.8102 29.3551 42.707 35.3958 42.707Z" fill="white"/>
<path id="Vector_3" d="M38.0001 31.7721C38.0001 33.2104 36.8341 34.3763 35.3959 34.3763C33.9577 34.3763 32.7917 33.2104 32.7917 31.7721C32.7917 30.3339 33.9577 29.168 35.3959 29.168C36.8341 29.168 38.0001 30.3339 38.0001 31.7721Z" fill="white"/>
<path id="Vector_4" d="M30.0019 28.0655C29.5928 27.6564 29.5928 26.9932 30.0019 26.5841C30.4109 26.1751 31.0742 26.1751 31.4832 26.5841L35.8945 30.9953C36.3035 31.4045 36.3035 32.0677 35.8945 32.4767C35.4853 32.8858 34.8221 32.8858 34.413 32.4767L30.0019 28.0655Z" fill="white"/>
</g>
</svg>
