<svg width="51" height="50" viewBox="0 0 51 50" fill="none" xmlns="http://www.w3.org/2000/svg">
<g id="blood-add-svgrepo-com">
<path id="Vector" d="M19.2499 15.6237L19.9865 14.8871C19.5797 14.4803 18.9201 14.4803 18.5134 14.8871L19.2499 15.6237ZM19.2499 15.6237C18.5134 14.8871 18.5136 14.8869 18.5134 14.8871C18.5136 14.8869 18.5132 14.8873 18.5134 14.8871C18.5129 14.8876 18.5111 14.8893 18.5104 14.8901C18.5088 14.8917 18.5066 14.8938 18.504 14.8966C18.4986 14.902 18.491 14.9096 18.4812 14.9195C18.4617 14.9393 18.4336 14.968 18.3974 15.0053C18.325 15.0798 18.2204 15.1886 18.0882 15.3292C17.8239 15.6104 17.4487 16.019 16.9996 16.5346C16.1024 17.5647 14.9051 19.0278 13.706 20.7599C11.3399 24.1777 8.83325 28.8293 8.83325 33.332H10.9166C10.9166 29.5014 13.0975 25.2989 15.4189 21.9458C16.5634 20.2925 17.7099 18.891 18.5706 17.9029C19.0004 17.4094 19.3576 17.0205 19.606 16.7564C19.7301 16.6244 19.8269 16.5236 19.8919 16.4568C19.9244 16.4233 19.9489 16.3983 19.9648 16.3822C19.9728 16.3741 19.9786 16.3682 19.9823 16.3645C19.9841 16.3627 19.9854 16.3614 19.9861 16.3607C19.986 16.3608 19.9865 16.3603 19.2499 15.6237ZM29.6666 33.332C29.6666 28.8293 27.1599 24.1777 24.7939 20.7599C23.5947 19.0278 22.3974 17.5647 21.5003 16.5346C21.0512 16.019 20.676 15.6104 20.4116 15.3292C20.2794 15.1886 20.1748 15.0798 20.1024 15.0053C20.0663 14.968 20.0381 14.9393 20.0186 14.9195C20.0089 14.9096 20.0013 14.902 19.9959 14.8966C19.9932 14.8938 19.991 14.8917 19.9895 14.8901C19.9887 14.8893 19.987 14.8876 19.9865 14.8871C19.9866 14.8873 19.9862 14.8869 19.9865 14.8871C19.9863 14.8869 19.9865 14.8871 19.2499 15.6237C18.5134 16.3603 18.5132 16.3601 18.5131 16.3601C18.5138 16.3608 18.5157 16.3627 18.5176 16.3645C18.5212 16.3682 18.527 16.3741 18.535 16.3822C18.551 16.3983 18.5755 16.4233 18.608 16.4568C18.6729 16.5236 18.7698 16.6244 18.8939 16.7564C19.1422 17.0205 19.4994 17.4094 19.9293 17.9029C20.7899 18.891 21.9364 20.2925 23.081 21.9458C25.4024 25.2989 27.5833 29.5014 27.5833 33.332H29.6666ZM27.5833 33.332C27.5833 37.9343 23.8522 41.6654 19.2499 41.6654V43.7487C25.0028 43.7487 29.6666 39.085 29.6666 33.332H27.5833ZM19.2499 41.6654C14.6475 41.6654 10.9166 37.9343 10.9166 33.332H8.83325C8.83325 39.085 13.497 43.7487 19.2499 43.7487V41.6654Z" fill="white"/>
<path id="Vector_2" d="M28.625 15.625H41.125M34.875 9.375V21.875" stroke="white" stroke-width="2.08333" stroke-linecap="round" stroke-linejoin="round"/>
</g>
</svg>
