<svg width="51" height="51" viewBox="0 0 51 51" fill="none" xmlns="http://www.w3.org/2000/svg">
<g clip-path="url(#clip0_288_12169)">
<path d="M25.4999 14.2358C26.8338 14.2358 27.9193 13.1503 27.9193 11.8165C27.9193 10.7665 27.2427 9.87937 26.3064 9.5455V3.75195H24.6935V9.5455C23.7564 9.87937 23.0806 10.7665 23.0806 11.8165C23.0806 13.1503 24.1661 14.2358 25.4999 14.2358ZM25.4999 11.01C25.9451 11.01 26.3064 11.3713 26.3064 11.8165C26.3064 12.2616 25.9451 12.6229 25.4999 12.6229C25.0548 12.6229 24.6935 12.2616 24.6935 11.8165C24.6935 11.3713 25.0548 11.01 25.4999 11.01Z" fill="white"/>
<path d="M45.6613 25.5254H45.3742L45.6194 23.4931C45.6468 23.2681 45.6613 23.0415 45.6613 22.8141V15.848C45.6613 12.7359 43.1282 10.2028 40.0161 10.2028H36.6613C35.875 4.74071 31.1766 0.525391 25.5 0.525391C19.8234 0.525391 15.125 4.74071 14.3387 10.2028H10.9839C7.87177 10.2028 5.33871 12.7359 5.33871 15.848V22.8141C5.33871 23.0415 5.35323 23.2689 5.37984 23.4931L5.62581 25.5254H0.5V35.2028H6.79919L8.05403 45.5593C8.39758 48.3907 10.8065 50.5254 13.6581 50.5254H37.3411C40.1927 50.5254 42.6016 48.3907 42.9452 45.5593L43.2234 43.2673H45.6613C48.3298 43.2673 50.5 41.0972 50.5 38.4286V30.3641C50.5 27.6956 48.3298 25.5254 45.6613 25.5254ZM25.5 2.13829C30.8363 2.13829 35.1774 6.47942 35.1774 11.8157C35.1774 17.152 30.8363 21.4931 25.5 21.4931C20.1637 21.4931 15.8226 17.152 15.8226 11.8157C15.8226 6.47942 20.1637 2.13829 25.5 2.13829ZM6.95161 15.848C6.95161 13.6246 8.76048 11.8157 10.9839 11.8157H14.2097C14.2097 18.0415 19.2742 23.106 25.5 23.106C31.7258 23.106 36.7903 18.0415 36.7903 11.8157H40.0161C42.2395 11.8157 44.0484 13.6246 44.0484 15.848V22.8141C44.0484 22.9754 44.0387 23.1375 44.0185 23.2996L43.7492 25.5254H7.25081L6.98065 23.298C6.96129 23.1375 6.95161 22.9754 6.95161 22.8141V15.848ZM41.3435 45.3657C41.0992 47.3875 39.3782 48.9125 37.3419 48.9125H13.6581C11.6218 48.9125 9.90081 47.3875 9.65564 45.3657L8.42419 35.2028H42.5758L41.3435 45.3657ZM45.6613 41.6544H43.4194L44.2016 35.2028H45.6613C47.4403 35.2028 48.8871 36.6496 48.8871 38.4286C48.8871 40.2076 47.4403 41.6544 45.6613 41.6544ZM48.8871 34.8246C48.0298 34.0576 46.8992 33.5899 45.6613 33.5899H2.1129V27.1383H3.72581V28.7512H5.33871V27.1383H6.95161V28.7512H8.56452V27.1383H10.1774V28.7512H11.7903V27.1383H13.4032V28.7512H15.0161V27.1383H16.629V28.7512H18.2419V27.1383H19.8548V28.7512H21.4677V27.1383H23.0806V28.7512H24.6935V27.1383H26.3065V28.7512H27.9194V27.1383H29.5323V28.7512H31.1452V27.1383H32.7581V28.7512H34.371V27.1383H35.9839V28.7512H37.5968V27.1383H39.2097V28.7512H40.8226V27.1383H42.4355V28.7512H44.0484V27.1383H45.6613V29.5576H47.2742V27.5867C48.2339 28.1464 48.8871 29.1754 48.8871 30.3641V34.8246Z" fill="white"/>
</g>
<defs>
<clipPath id="clip0_288_12169">
<rect width="50" height="50" fill="white" transform="translate(0.5 0.525391)"/>
</clipPath>
</defs>
</svg>
