<svg width="51" height="50" viewBox="0 0 51 50" fill="none" xmlns="http://www.w3.org/2000/svg">
<g id="heart-rate-svgrepo-com 1" clip-path="url(#clip0_288_10822)">
<path id="Vector" d="M7.76829 12.5074C6.2565 15.0991 5.75894 18.6952 6.68781 22.4108C7.02209 23.7477 7.99383 25.4666 9.53392 27.4452C11.0441 29.3852 12.9717 31.4133 15.0133 33.3591C19.0614 37.2177 23.4179 40.6212 25.5 42.1952C26.6831 41.3008 28.6009 39.8156 30.7788 37.9918C31.1571 37.6752 31.6342 37.4993 32.1275 37.4993H32.324C34.2217 37.4993 35.1034 39.8002 33.6506 41.0212C31.2838 43.011 29.2031 44.6202 27.9604 45.5583C26.5006 46.6606 24.4994 46.6606 23.0396 45.5583C20.9257 43.9623 16.3872 40.4248 12.1385 36.3754C10.0153 34.3516 7.92888 32.1664 6.24598 30.0046C4.59296 27.881 3.19252 25.6091 2.64556 23.4212C1.49109 18.8035 2.0352 14.0663 4.16921 10.408C6.33942 6.68758 10.1254 4.16602 15.0833 4.16602C20.48 4.16602 23.6186 8.2446 25.28 11.5676C25.3556 11.7188 25.429 11.8698 25.5 12.0204C25.5711 11.8698 25.6444 11.7188 25.72 11.5677C27.3815 8.2446 30.52 4.16602 35.9167 4.16602C40.8746 4.16602 44.6606 6.68758 46.8309 10.408C48.6496 13.5258 49.3136 17.4273 48.7552 21.3708C48.6267 22.2798 47.8211 22.916 46.9031 22.916C45.5592 22.916 44.6021 21.5798 44.7473 20.2437C45.0363 17.5828 44.5356 14.7427 43.2317 12.5074C41.7561 9.97779 39.2921 8.33268 35.9167 8.33268C32.98 8.33268 30.9102 10.5041 29.4467 13.431C28.7436 14.8374 28.2656 16.2649 27.9631 17.3538C27.8129 17.8943 27.7088 18.3417 27.6429 18.6488C27.4098 19.7367 26.1548 19.791 25.5 19.791C24.8452 19.791 23.5881 19.7265 23.3571 18.6488C23.2913 18.3418 23.1871 17.8943 23.0369 17.3538C22.7344 16.2649 22.2565 14.8375 21.5534 13.4311C20.0898 10.5041 18.0199 8.33268 15.0833 8.33268C11.7079 8.33268 9.2439 9.97779 7.76829 12.5074Z" fill="white"/>
<path id="Vector_2" d="M33.6649 20.0127C33.3455 19.2671 32.6222 18.7747 31.8113 18.7509C31.0005 18.7271 30.2495 19.1761 29.8867 19.9017L26.2959 27.0833H19.2501C18.0995 27.0833 17.1667 28.016 17.1667 29.1667C17.1667 30.3173 18.0995 31.25 19.2501 31.25H27.5834C28.3726 31.25 29.0938 30.8042 29.4467 30.0983L31.6047 25.7827L36.0851 36.2373C36.3782 36.921 37.0136 37.3967 37.7522 37.4852C38.4907 37.5738 39.2205 37.2617 39.6667 36.6667L45.2917 29.1667H48.4167C49.5674 29.1667 50.5001 28.234 50.5001 27.0833C50.5001 25.9327 49.5674 25 48.4167 25H44.2501C43.5942 25 42.9767 25.3088 42.5834 25.8333L38.4955 31.284L33.6649 20.0127Z" fill="white"/>
</g>
<defs>
<clipPath id="clip0_288_10822">
<rect width="50" height="50" fill="white" transform="translate(0.5)"/>
</clipPath>
</defs>
</svg>
