<svg width="51" height="50" viewBox="0 0 51 50" fill="none" xmlns="http://www.w3.org/2000/svg">
<g id="smoking-room-svgrepo-com 1">
<path id="Vector" d="M2.0625 23.4375V35.1562H35.6562V23.4375H2.0625ZM32.5312 32.0312H5.1875V26.5625H32.5312V32.0312Z" fill="white"/>
<path id="Vector_2" d="M41.125 23.4375H38V35.1562H41.125V23.4375Z" fill="white"/>
<path id="Vector_3" d="M46.5938 23.4375H43.4688V35.1562H46.5938V23.4375Z" fill="white"/>
<path id="Vector_4" d="M38.1395 16.9238C37.7648 16.3586 37.5843 15.6869 37.6252 15.0101C37.6661 14.3332 37.9261 13.6881 38.366 13.1721C39.2754 12.1144 39.8032 10.782 39.8648 9.38854C39.9264 7.99506 39.5182 6.62127 38.7058 5.4875L38.1345 4.6875H34.5625L34.3848 4.81445L36.1628 7.30371C36.5682 7.86944 36.7719 8.55494 36.7412 9.25027C36.7104 9.94559 36.447 10.6104 35.9933 11.1382C35.1117 12.1723 34.5907 13.4653 34.5088 14.8217C34.4269 16.1781 34.7886 17.5243 35.5393 18.657L36.1221 19.5312H39.8779L38.1395 16.9238Z" fill="white"/>
<path id="Vector_5" d="M45.1707 16.9238C44.7961 16.3586 44.6156 15.6869 44.6565 15.0101C44.6973 14.3332 44.9574 13.6881 45.3973 13.1721C46.3066 12.1144 46.8345 10.782 46.8961 9.38854C46.9577 7.99506 46.5495 6.62127 45.737 5.4875L45.1657 4.6875H41.5937L41.416 4.81445L43.194 7.30371C43.5995 7.86944 43.8031 8.55494 43.7724 9.25027C43.7417 9.94559 43.4783 10.6104 43.0245 11.1382C42.143 12.1723 41.6219 13.4653 41.54 14.8217C41.4581 16.1781 41.8198 17.5243 42.5705 18.657L43.1533 19.5312H46.9092L45.1707 16.9238Z" fill="white"/>
</g>
</svg>
